<svg xmlns="http://www.w3.org/2000/svg" viewBox="0 0 419.28 503.4"><defs><style>.cls-1{fill:#231f20;}.cls-2{fill:#fff;stroke:#000;}.cls-2,.cls-3,.cls-4{stroke-miterlimit:10;}.cls-2,.cls-4{stroke-width:2px;}.cls-3{fill:#a846a0;stroke:#fff;}.cls-4{fill:none;stroke:#0f260e;stroke-linecap:round;}.cls-5{fill:#23ce6b;}.cls-6{fill:#0f260e;}</style></defs><g id="Layer_9" data-name="Layer 9"><rect class="cls-1" width="419.28" height="503.4"/></g><g id="letters"><path class="cls-2" d="M250.78,84.59l3.31,27.49a3.56,3.56,0,0,0,1.06,2.12l14.06,13.39s41.36,97.95-24.69,149.68a360.25,360.25,0,0,0,38.12,31,2.91,2.91,0,0,0,2.93.2l9.46-4.74a1.78,1.78,0,0,1,1.73.1L308,311.13a1.38,1.38,0,0,0,1.32.1c2.07-1,8.09-4.48,8.48-13.83,0-.69,0-1.35,0-2.11a2.14,2.14,0,0,0-.87-1.28c-11.62-9.78-14.85-42.09-8.48-66.92a15.33,15.33,0,0,1,2.88-6c6.53-8,14.32.92,13.36,10.93,0,0,15.52,3.53,11.78,21.34s-4.86,15.58-14.78,18c-2.45,2.89-5.58,11.27-8.14,18.76a21,21,0,0,0,2.69,3.18c.62.62,1,.72,1.4,1.46a4.23,4.23,0,0,1,.17,2,18.33,18.33,0,0,1-1.45,7.11c11.33,6.91,37.88,22.17,52.75,22.28,6.52-4.58,14.65-30.93,16.33-38.22a1.89,1.89,0,0,0-1.58-2.42c-6.35,0-21.86-3.76-21.54-4.12,4.89-9.36,8.59-26.16,19-39.38,1.73-2.2,2.62-5.61,8.46-6.89a1.47,1.47,0,0,0,1.13-1.27c.67-5.75-2.33-20.37-3.12-24.08a1.15,1.15,0,0,0-1.07-.91l-2.13-.14c-.26,0-.8,0-1.28-.12a1,1,0,0,1-.85-1.08l.13-3.41A1.33,1.33,0,0,0,382,203c-3.34-2.12-18.81-11.7-26.52-11.88a1.27,1.27,0,0,0-1.11.6A22,22,0,0,1,350,196.3a1.62,1.62,0,0,1-.75.32A60.2,60.2,0,0,1,326.16,195c-5.75-1.42-2.14-5.38-.92-6.39,13-10.71,24.44-32.76,24.44-32.76l10.16-.59a2.32,2.32,0,0,0,2-1.42c2.25-5.4,12.08-26.34,18.26-35.14a2,2,0,0,0-.56-2.86c-8.78-5.64-21.62-10.43-28.08-11.38-3.12.45-4.86,3.34-5.62,5A2.61,2.61,0,0,1,344,111l-3.87.77a1.85,1.85,0,0,0-1.48,1.58c-1,7.72-7.33,47.48-28.18,59-1.76,1.22-2,.24-2.64-.6a82.74,82.74,0,0,1-12-26.16,3,3,0,0,1,0-1.51l3.88-14.16a2.22,2.22,0,0,0,.07-.77c-.25-3.55-2.19-30.17-2.29-31.35-.34-4.07-1-4.07-9.39-4.5l.53-21s.42-4.61-2.9-6.63c-2.85-1.74-2.52-3.53-9.19,1.26-5.73,4.11-20.72,13.27-24.86,15.8A2,2,0,0,0,250.78,84.59Z"/><line class="cls-2" x1="286.9" y1="112.63" x2="288.15" y2="92.6"/><line class="cls-2" x1="260.99" y1="103.22" x2="269.66" y2="128.7"/><line class="cls-2" x1="349.08" y1="156.99" x2="358.5" y2="138.25"/><path class="cls-2" d="M350.61,276.42a72.71,72.71,0,0,0,13.48,5.7"/><path class="cls-2" d="M325.32,281.59c.33-.51,7.43-15.33,7.43-15.33"/><path class="cls-2" d="M243.16,216.13"/><path class="cls-2" d="M264.67,208c3.16-1.79,2.86-1.4,2.87-7.31.1-31.83,4.75-43.64,11.33-46.16,6-2.29,0-7.93,0-7.93l-11.22-10.89a2.18,2.18,0,0,0-2.09-.55l-5,1.3a2.22,2.22,0,0,1-2.28-.74l-1.61-1.95a2.22,2.22,0,0,0-2.61-.62l-16.84,7.45a2.57,2.57,0,0,0-1.52,2.34v11.88a5.72,5.72,0,0,1-.22,1.53l-2.21,7.56a2.42,2.42,0,0,0,.3,2l6.58,9A5.79,5.79,0,0,1,241.3,178l1.82,37.39a.54.54,0,0,0,.73.48Z"/><path class="cls-2" d="M267.29,214.45l.11,4.87a1.3,1.3,0,0,1-.64,1.46l-21.55,9.07a.71.71,0,0,1-1-.61l-.31-4.4a.73.73,0,0,1,.41-.7l22-10.31A.65.65,0,0,1,267.29,214.45Z"/><path class="cls-2" d="M265.3,226.59a1.7,1.7,0,0,1,2.2,1.54c.36,6.83,1.12,29.71-11,65.19-1.51,3.86.45,4.22.45,4.22s3,1.52-.58,4.79c-2,1.82-9,9.33-11.14,11.56a1.92,1.92,0,0,1-1.47.6l-2.93-.17c-4.86-.31-4.22-1.71-4.19-5.45.13-18.28,9.19-55,8.63-72.37a1.71,1.71,0,0,1,1-1.58C250.18,233,260.68,228,265.3,226.59Z"/><line class="cls-2" x1="241.75" y1="152.54" x2="241.3" y2="177.99"/><path class="cls-2" d="M227.29,235.1c1,2.13-.75,6.28-.59,8.24.73,9.06,6.79,7.75,7.56-3.11,0,0,0-3,0-3.41a.24.24,0,0,0,0-.08l-5.81-22.87a1.83,1.83,0,0,0-1.77-1.37h-2.84a1.19,1.19,0,0,1-1-.57c-.87-1.4-2.67-5.93-2.08-18.85.18-2.85,9.54-9.32,12.6-11.35a1.17,1.17,0,0,1,1.62.3c4.32,6.11,27.65,41.43,14.94,74.24a1.09,1.09,0,0,0-.07.64c.66,2.7,5.89,7.62,7.65,9.22a1.15,1.15,0,0,1,.31,1.26c-1.39,3.84-8,21.24-13.95,23.2s-24.4-6.38-28.06-8.09a1.2,1.2,0,0,1-.69-1l-.75-9.92a1.21,1.21,0,0,0-2.35-.31l-4.23,12.07a.89.89,0,0,1-.15.29c-1.1,1.57-11.62,15.49-39.59,19.43a1.26,1.26,0,0,0-.49.18c-2.37,1.53-3.93,6.14-5.19,8.4a3.42,3.42,0,0,1-4.81,1.26c-10.83-6.72-45.31-30.25-40.53-34.06,20-15.89,43.23-102.17,45.05-109a1.19,1.19,0,0,0-.09-.83l-2.17-4.48a1.21,1.21,0,0,1,.29-1.44l20.23-17.88a1.21,1.21,0,0,1,1.55-.05l4,3.16a1.21,1.21,0,0,0,1.29.14l3.48-1.74a1.2,1.2,0,0,1,1.48.32l25,30.77a1.13,1.13,0,0,1,.24.49l1.74,7.65a1.21,1.21,0,0,1-.26,1l-15.58,18.34a1.22,1.22,0,0,1-1.19.39l-4.44-1a1.2,1.2,0,0,0-1.3.55C194,209,184.13,225.51,182.58,232.2c-1.74,7.55-4.18,21.74,10.63,9.29,9.89-8.31,11.93-12.17,12.2-13.82a1.24,1.24,0,0,1,1.34-1c3.34.25,11.71,1.58,20.54,8.47"/><line class="cls-2" x1="207.7" y1="188.61" x2="195.68" y2="206.22"/><line class="cls-2" x1="244.52" y1="268.46" x2="250.07" y2="255.74"/><path class="cls-2" d="M74.75,287.66A1.29,1.29,0,0,0,74.6,286c-4.6-4.65-29.22-29.12-32.73-33.7-5.13-6.68.41-13,.41-13s21.55-27.09,25.91-32.9,8-1.64,8-1.64,11.37,12.72,20.13,18.09c13.53,8.3,15.31-4.76,9.29-14.13C101,201.58,90,195.2,84.31,193.35a3.18,3.18,0,0,0-3.81,1.74h0a2.87,2.87,0,0,1-2.84,1.75c-6.71-.45-27.68-2.13-28.15-5.58-.65-4.84,8.13-19.16,21.87-48.58C83.49,116.76,82.15,97.3,81.66,93a2,2,0,0,1,.51-1.56l22-23.9c3.52-3.72,3.37-2.46,6.54-1.41l7.71,4.16c3.77,2.09,3.31,2.15,6.69-.5l5.53-4.15c3.29-1.91,3.16-1,5.17.75,7.28,6.23,25.42,28.08,22.8,31.34-3.2,4-14.68,37.62-14.68,37.62l5.42,8.35c.87,1,.19,3.15.07,3.69l-6.76,35.87a.9.9,0,0,1-1.19.64,64.91,64.91,0,0,0-44.9-2.36c-5.54,1.75-2.42-24.13-1.14-33.35a.34.34,0,0,0-.65-.16c-2.4,6.5-7.84,21.22-8.08,21.8s-4,7.79,1.36,9.93c4.58,1.84,12,2.84,14,3.08a2.88,2.88,0,0,1,1,.28l37,18.51a4.39,4.39,0,0,0,3,.34l3.92-1.95a1.75,1.75,0,0,1,1.38.29c3.53,2.46,20.94,16,20.44,17.52-9.05,8.61-28.79,39.92-34.94,48.29-.62,1.14-.77-.82,5,6.81a1.3,1.3,0,0,1,.28.7,2.27,2.27,0,0,1-.23,1.25c-.43.87-25.6,36.42-56.18,47.8-2.41.63-12.26-15.45-15-21.33-1.23-2.62-.35-2.74.42-3.89Z"/><path class="cls-2" d="M143.9,135.39a87.29,87.29,0,0,0-6.26,19.93"/><line class="cls-2" x1="119.17" y1="283.58" x2="133.51" y2="266.64"/></g><g id="Color_letters" data-name="Color letters"><path class="cls-3" d="M387.8,209.85a1.15,1.15,0,0,0-1.07-.91l-2.13-.14c-.26,0-.8,0-1.28-.12a1.07,1.07,0,0,1-.86-1.08l.14-3.41A1.33,1.33,0,0,0,382,203c-3.34-2.12-18.81-11.7-26.52-11.88a1.27,1.27,0,0,0-1.11.6A22,22,0,0,1,350,196.3a1.62,1.62,0,0,1-.75.32A60.2,60.2,0,0,1,326.16,195c-5.75-1.42-2.14-5.38-.92-6.39,13-10.71,24.44-32.76,24.44-32.76l10.16-.59a2.32,2.32,0,0,0,2-1.42c2.25-5.4,12.08-26.34,18.26-35.14a2,2,0,0,0-.56-2.86c-8.78-5.64-21.62-10.43-28.08-11.38-3.12.45-4.86,3.34-5.62,5A2.61,2.61,0,0,1,344,111l-3.87.77a1.85,1.85,0,0,0-1.48,1.58c-1,7.72-7.33,47.48-28.18,59-1.76,1.22-2,.24-2.64-.6a82.74,82.74,0,0,1-12-26.16,3,3,0,0,1,0-1.51l3.88-14.16a2.22,2.22,0,0,0,.07-.77c-.25-3.55-2.19-30.17-2.29-31.35-.34-4.07-1-4.07-9.39-4.5l.53-21s.42-4.61-2.9-6.63c-2.85-1.74-2.52-3.53-9.19,1.26-5.73,4.11-20.72,13.27-24.86,15.8a2,2,0,0,0-.93,1.91l3.31,27.49a3.56,3.56,0,0,0,1.06,2.12l14.06,13.39A148.07,148.07,0,0,1,274.14,142l-6.49-6.29a2.18,2.18,0,0,0-2.09-.55l-5,1.3a2.22,2.22,0,0,1-2.28-.74l-1.61-1.95a2.22,2.22,0,0,0-2.61-.62l-16.84,7.45a2.57,2.57,0,0,0-1.52,2.34v11.88a5.72,5.72,0,0,1-.22,1.53l-2.21,7.56a2.42,2.42,0,0,0,.3,2l6.58,9A5.79,5.79,0,0,1,241.3,178l.77,15.82A110.13,110.13,0,0,0,234.93,182a1.17,1.17,0,0,0-1.62-.3c-3.06,2-12.42,8.5-12.6,11.35-.59,12.92,1.21,17.45,2.08,18.85a1.19,1.19,0,0,0,1,.57h2.84a1.83,1.83,0,0,1,1.77,1.37l5.81,22.87a.24.24,0,0,1,0,.08c0,.37,0,3.37,0,3.41-.77,10.86-6.83,12.17-7.56,3.11-.16-2,1.59-6.11.59-8.24-8.83-6.89-17.2-8.22-20.54-8.47a1.24,1.24,0,0,0-1.34,1c-.27,1.65-2.31,5.51-12.2,13.82-14.81,12.45-12.37-1.74-10.63-9.29,1.55-6.69,11.44-23.25,13.68-26.94a1.2,1.2,0,0,1,1.3-.55l4.44,1a1.22,1.22,0,0,0,1.19-.39L218.77,187a1.21,1.21,0,0,0,.26-1l-1.74-7.65a1.13,1.13,0,0,0-.24-.49L192.1,147a1.2,1.2,0,0,0-1.48-.32l-3.48,1.74a1.21,1.21,0,0,1-1.29-.14l-4-3.16a1.21,1.21,0,0,0-1.55.05l-20.23,17.88a1.21,1.21,0,0,0-.29,1.44l2.17,4.48a1.19,1.19,0,0,1,.09.83c-.69,2.58-4.4,16.37-9.83,33.43-1.72-1.33-3.13-2.37-3.89-2.9a1.75,1.75,0,0,0-1.38-.29L143,202a4.39,4.39,0,0,1-3-.34l-37-18.51a2.88,2.88,0,0,0-1-.28c-2-.24-9.43-1.24-14-3.08-5.32-2.14-1.57-9.37-1.36-9.93s5.68-15.3,8.08-21.8a.34.34,0,0,1,.65.16c-1.28,9.22-4.4,35.1,1.14,33.35a64.91,64.91,0,0,1,44.9,2.36.9.9,0,0,0,1.19-.64l6.76-35.87c.12-.54.8-2.66-.07-3.69l-5.42-8.35s11.48-33.65,14.68-37.62c2.62-3.26-15.52-25.11-22.8-31.34-2-1.72-1.88-2.66-5.17-.75l-5.53,4.15c-3.38,2.65-2.92,2.59-6.69.5l-7.71-4.16c-3.17-1-3-2.31-6.54,1.41l-22,23.9A2,2,0,0,0,81.66,93c.49,4.26,1.83,23.72-10.28,49.64-13.74,29.42-22.52,43.74-21.87,48.58.47,3.45,21.44,5.13,28.15,5.58a2.87,2.87,0,0,0,2.84-1.75h0a3.18,3.18,0,0,1,3.81-1.74c5.64,1.85,16.71,8.23,21.33,15.42,6,9.37,4.24,22.43-9.29,14.13-8.76-5.37-20.13-18.09-20.13-18.09s-3.68-4.17-8,1.64-25.91,32.9-25.91,32.9-5.54,6.29-.41,13C45.38,256.9,70,281.37,74.6,286a1.29,1.29,0,0,1,.15,1.64L68.1,297.5c-.77,1.15-1.65,1.27-.42,3.89,2.76,5.88,12.61,22,15,21.33,17.43-6.49,33.09-20.82,43.43-32.12a340.8,340.8,0,0,0,31.37,22.3,3.42,3.42,0,0,0,4.81-1.26c1.26-2.26,2.82-6.87,5.19-8.4a1.26,1.26,0,0,1,.49-.18c28-3.94,38.49-17.86,39.59-19.43a.89.89,0,0,0,.15-.29L212,271.27a1.21,1.21,0,0,1,2.35.31l.75,9.92a1.2,1.2,0,0,0,.69,1c2.85,1.33,14.67,6.71,22.58,8.07a147.17,147.17,0,0,0-1.72,18.3c0,3.74-.67,5.14,4.19,5.45l2.93.17a1.92,1.92,0,0,0,1.47-.6c2.09-2.23,9.15-9.74,11.14-11.56,3.56-3.27.58-4.79.58-4.79s-2-.36-.45-4.22c.49-1.43.95-2.82,1.4-4.21,12,10.18,21.36,16.83,24.77,19.2a2.91,2.91,0,0,0,2.93.2l9.46-4.74a1.78,1.78,0,0,1,1.73.1L308,311.13a1.38,1.38,0,0,0,1.32.1,14.4,14.4,0,0,0,7.14-7.54c0,.09-.06.17-.1.26,11.33,6.91,37.88,22.17,52.75,22.28,6.52-4.58,14.65-30.93,16.33-38.22a1.89,1.89,0,0,0-1.58-2.42c-5,0-15.51-2.29-19.74-3.47l-1.76-.74c4.87-9.38,8.58-26.11,19-39.29,1.73-2.2,2.62-5.61,8.46-6.89a1.47,1.47,0,0,0,1.13-1.27C391.59,228.18,388.59,213.56,387.8,209.85ZM266.24,253.39a130.75,130.75,0,0,0,1.26-25.26,1.7,1.7,0,0,0-2.2-1.54,119.81,119.81,0,0,0-11.81,4.9c-.1-1.66-.27-3.3-.48-4.92l13.75-5.79a1.3,1.3,0,0,0,.64-1.46l-.11-4.87a.65.65,0,0,0-1-.62L252,220.55c-.51-2.43-1.12-4.79-1.8-7.09L264.67,208c3.16-1.79,2.86-1.4,2.87-7.31.09-29.65,4.13-41.92,10-45.5C283.33,181.15,286.78,220.88,266.24,253.39Zm49.38,39.4.37.38Zm-1.79-2.13,0,0Zm1,1.23.05.06Zm1.94,11,0,.06Zm1-6.05a17.06,17.06,0,0,1-.38,3.62,20,20,0,0,0,.37-3.06c0-.67,0-1.32,0-2A10.33,10.33,0,0,1,317.78,296.84Zm-.58,4.51c0-.17.09-.33.12-.51C317.29,301,317.24,301.18,317.2,301.35Zm19.24-47.94c-3.74,17.81-4.86,15.58-14.78,18-2.45,2.88-5.58,11.26-8.13,18.75-8.82-12.69-10.81-40.9-5.11-63.12a15.33,15.33,0,0,1,2.88-6c6.53-8,14.32.92,13.36,10.93C324.66,232.07,340.18,235.6,336.44,253.41Zm27.65,28.71a12,12,0,0,1-1.67-.54C363.45,281.93,364.09,282.12,364.09,282.12Z"/></g><g id="k"><path class="cls-4" d="M277.47,155.22c5.79,25.83,8.93,65.73-11.22,98.2"/><path class="cls-4" d="M258,289.54c11.93,10.09,21.19,16.69,24.59,19a2.86,2.86,0,0,0,2.92.2l9.47-4.73a1.73,1.73,0,0,1,1.72.09l11.21,7.26a1.37,1.37,0,0,0,1.33.1c2.07-.95,8.08-4.47,8.47-13.82,0-.69,0-1.36,0-2.11a2.15,2.15,0,0,0-.86-1.29c-11.63-9.78-14.85-42.09-8.48-66.92a15.34,15.34,0,0,1,2.87-5.94c6.54-8,14.32.91,13.37,10.93,0,0,15.52,3.53,11.78,21.33s-4.86,15.59-14.78,18.05c-2.46,2.89-5.58,11.27-8.14,18.77a20.3,20.3,0,0,0,2.69,3.17c.61.62,1,.73,1.39,1.47a4.19,4.19,0,0,1,.18,2,18.2,18.2,0,0,1-1.46,7.12c11.34,6.9,37.88,22.16,52.76,22.28,6.52-4.58,14.64-30.94,16.33-38.22a1.91,1.91,0,0,0-1.59-2.43c-6.35,0-21.86-3.76-21.53-4.12,4.89-9.36,8.59-26.16,19-39.38,1.74-2.19,2.62-5.6,8.47-6.88a1.47,1.47,0,0,0,1.12-1.28c.67-5.74-2.32-20.37-3.11-24.07a1.17,1.17,0,0,0-1.07-.92l-2.13-.14a9.16,9.16,0,0,1-1.29-.12,1.05,1.05,0,0,1-.85-1.08l.14-3.41a1.32,1.32,0,0,0-.62-1.17c-3.33-2.13-18.81-11.71-26.52-11.89a1.3,1.3,0,0,0-1.11.61,21.68,21.68,0,0,1-4.39,4.56,1.58,1.58,0,0,1-.75.32,59.86,59.86,0,0,1-23.05-1.6c-5.76-1.42-2.14-5.39-.92-6.4,13-10.71,24.44-32.75,24.44-32.75l10.15-.6a2.31,2.31,0,0,0,2-1.42c2.26-5.4,12.08-26.34,18.26-35.13a2,2,0,0,0-.56-2.86c-8.78-5.64-21.61-10.43-28.07-11.38-3.12.44-4.87,3.33-5.63,5a2.6,2.6,0,0,1-1.85,1.5l-3.88.76a1.85,1.85,0,0,0-1.47,1.58c-1,7.72-7.33,47.48-28.19,59-1.76,1.23-2.05.25-2.64-.6a82.38,82.38,0,0,1-12-26.16,2.87,2.87,0,0,1,0-1.51l3.87-14.15a2.28,2.28,0,0,0,.08-.78c-.25-3.55-2.2-30.17-2.29-31.35-.34-4.06-1-4.06-9.39-4.5l.53-21s.41-4.61-2.9-6.63c-2.86-1.73-2.52-3.53-9.2,1.26-5.72,4.11-20.71,13.28-24.86,15.8a2,2,0,0,0-.92,1.91l3.31,27.5a3.51,3.51,0,0,0,1.06,2.11l14.06,13.39s2.19,5.19,4.76,13.8"/><line class="cls-4" x1="286.9" y1="112.63" x2="288.15" y2="92.6"/><line class="cls-4" x1="260.99" y1="103.22" x2="269.66" y2="128.7"/><line class="cls-4" x1="349.08" y1="156.99" x2="358.5" y2="138.25"/><path class="cls-4" d="M350.61,276.42a72.71,72.71,0,0,0,13.48,5.7"/><path class="cls-4" d="M325.32,281.59c.33-.51,7.43-15.33,7.43-15.33"/></g><g id="i"><path class="cls-4" d="M249.67,213.65l15-5.7c3.16-1.79,2.86-1.4,2.87-7.31.1-31.83,4.75-43.64,11.33-46.16,6-2.29,0-7.93,0-7.93l-11.22-10.89a2.18,2.18,0,0,0-2.09-.55l-5,1.3a2.22,2.22,0,0,1-2.28-.74l-1.61-1.95a2.22,2.22,0,0,0-2.61-.62l-16.84,7.45a2.57,2.57,0,0,0-1.52,2.34v11.88a5.72,5.72,0,0,1-.22,1.53l-2.21,7.56a2.42,2.42,0,0,0,.3,2l6.58,9A5.79,5.79,0,0,1,241.3,178l.79,16.23"/><path class="cls-4" d="M252,220.55"/><path class="cls-4" d="M252.75,226.68"/><path class="cls-4" d="M252,220.55l14.34-6.72a.65.65,0,0,1,1,.62l.11,4.87a1.3,1.3,0,0,1-.64,1.46l-14,5.9"/><path class="cls-4" d="M253.23,231.6a123.79,123.79,0,0,1,12.07-5,1.7,1.7,0,0,1,2.2,1.54c.36,6.83,1.12,29.71-11,65.19-1.51,3.86.45,4.22.45,4.22s3,1.52-.58,4.79c-2,1.82-9,9.33-11.14,11.56a1.92,1.92,0,0,1-1.47.6l-2.93-.17c-4.86-.31-4.22-1.71-4.19-5.45A144.35,144.35,0,0,1,238.27,291"/><line class="cls-4" x1="241.75" y1="152.54" x2="241.3" y2="177.99"/></g><g id="w"><path class="cls-4" d="M152.09,203.58c5.48-17.21,9.24-31.17,9.93-33.76a1.19,1.19,0,0,0-.09-.83l-2.17-4.48a1.21,1.21,0,0,1,.29-1.44l20.23-17.88a1.21,1.21,0,0,1,1.55-.05l4,3.16a1.21,1.21,0,0,0,1.29.14l3.48-1.74a1.2,1.2,0,0,1,1.48.32l25,30.77a1.13,1.13,0,0,1,.24.49l1.74,7.65a1.21,1.21,0,0,1-.26,1l-15.58,18.34a1.22,1.22,0,0,1-1.19.39l-4.44-1a1.2,1.2,0,0,0-1.3.55C194,209,184.13,225.51,182.58,232.2c-1.74,7.55-4.18,21.74,10.63,9.29,9.89-8.31,11.93-12.17,12.2-13.82a1.24,1.24,0,0,1,1.34-1c3.34.25,12,2,20.86,8.86"/><path class="cls-4" d="M227.29,235.1c1,2.13-.75,6.28-.59,8.24.73,9.06,6.79,7.75,7.56-3.11,0,0,0-3,0-3.41a.24.24,0,0,0,0-.08l-5.81-22.87a1.83,1.83,0,0,0-1.77-1.37h-2.84a1.19,1.19,0,0,1-1-.57c-.87-1.4-2.67-5.93-2.08-18.85.18-2.85,9.54-9.32,12.6-11.35a1.17,1.17,0,0,1,1.62.3c4.32,6.11,27.65,41.43,14.94,74.24a1.09,1.09,0,0,0-.07.64c.66,2.7,5.89,7.62,7.65,9.22a1.15,1.15,0,0,1,.31,1.26c-1.39,3.84-8,21.24-13.95,23.2s-24.4-6.38-28.06-8.09a1.2,1.2,0,0,1-.69-1l-.75-9.92a1.21,1.21,0,0,0-2.35-.31l-4.23,12.07a.89.89,0,0,1-.15.29c-1.1,1.57-11.62,15.49-39.59,19.43a1.26,1.26,0,0,0-.49.18c-2.37,1.53-3.93,6.14-5.19,8.4a3.42,3.42,0,0,1-4.81,1.26c-6.64-4.12-21.45-14-31.37-22.3"/><line class="cls-4" x1="207.7" y1="188.61" x2="195.68" y2="206.22"/><line class="cls-4" x1="244.52" y1="268.46" x2="250.07" y2="255.74"/></g><g id="s"><path class="cls-4" d="M74.75,287.66A1.29,1.29,0,0,0,74.6,286c-4.6-4.65-29.22-29.12-32.73-33.7-5.13-6.68.41-13,.41-13s21.55-27.09,25.91-32.9,8-1.64,8-1.64,11.37,12.72,20.13,18.09c13.53,8.3,15.31-4.76,9.29-14.13C101,201.58,90,195.2,84.31,193.35a3.18,3.18,0,0,0-3.81,1.74h0a2.87,2.87,0,0,1-2.84,1.75c-6.71-.45-27.68-2.13-28.15-5.58-.65-4.84,8.13-19.16,21.87-48.58C83.49,116.76,82.15,97.3,81.66,93a2,2,0,0,1,.51-1.56l22-23.9c3.52-3.72,3.37-2.46,6.54-1.41l7.71,4.16c3.77,2.09,3.31,2.15,6.69-.5l5.53-4.15c3.29-1.91,3.16-1,5.17.75,7.28,6.23,25.42,28.08,22.8,31.34-3.2,4-14.68,37.62-14.68,37.62l5.42,8.35c.87,1,.19,3.15.07,3.69l-6.76,35.87a.9.9,0,0,1-1.19.64,64.91,64.91,0,0,0-44.9-2.36c-5.54,1.75-2.42-24.13-1.14-33.35a.34.34,0,0,0-.65-.16c-2.4,6.5-7.84,21.22-8.08,21.8s-4,7.79,1.36,9.93c4.58,1.84,12,2.84,14,3.08a2.88,2.88,0,0,1,1,.28l37,18.51a4.39,4.39,0,0,0,3,.34l3.92-1.95a1.75,1.75,0,0,1,1.38.29c3.53,2.46,20.94,16,20.44,17.52-9.05,8.61-28.79,39.92-34.94,48.29-.62,1.14-.77-.82,5,6.81a1.3,1.3,0,0,1,.28.7,2.27,2.27,0,0,1-.23,1.25c-.43.87-25.6,36.42-56.18,47.8-2.41.63-12.26-15.45-15-21.33-1.23-2.62-.35-2.74.42-3.89Z"/><path class="cls-4" d="M143.9,135.39a87.29,87.29,0,0,0-6.26,19.93"/><line class="cls-4" x1="119.17" y1="283.58" x2="133.51" y2="266.64"/></g><g id="color_ext" data-name="color ext"><path class="cls-5" d="M282.46,63.8c1.2,0,1.82.92,3.3,1.82,3.32,2,2.9,6.63,2.9,6.63l-.53,21c8.37.43,9.05.43,9.39,4.5.1,1.18,2,27.8,2.29,31.35a2.22,2.22,0,0,1-.07.77L295.86,144a3,3,0,0,0,0,1.51,82.74,82.74,0,0,0,12,26.16c.39.56.65,1.17,1.29,1.17a2.6,2.6,0,0,0,1.35-.57c20.85-11.48,27.21-51.24,28.18-59a1.85,1.85,0,0,1,1.48-1.58L344,111a2.61,2.61,0,0,0,1.86-1.49c.76-1.69,2.5-4.58,5.62-5,6.46,1,19.3,5.74,28.08,11.38a2,2,0,0,1,.56,2.86c-6.18,8.8-16,29.74-18.26,35.14a2.32,2.32,0,0,1-2,1.42l-10.16.59s-11.44,22-24.44,32.76c-1.22,1-4.83,5,.92,6.39a60.1,60.1,0,0,0,23.06,1.61,1.62,1.62,0,0,0,.75-.32,22,22,0,0,0,4.39-4.57,1.28,1.28,0,0,1,1.08-.6h0c7.71.18,23.18,9.76,26.52,11.88a1.33,1.33,0,0,1,.61,1.18l-.14,3.41a1.07,1.07,0,0,0,.86,1.08c.48.08,1,.1,1.28.12l2.13.14a1.15,1.15,0,0,1,1.07.91c.79,3.71,3.79,18.33,3.12,24.08a1.47,1.47,0,0,1-1.13,1.27c-5.84,1.28-6.73,4.69-8.46,6.89-10.42,13.18-14.13,29.91-19,39.29l1.76.74c4.21,1.18,14.65,3.47,19.65,3.47h.09a1.9,1.9,0,0,1,1.58,2.42c-1.68,7.29-9.81,33.64-16.33,38.22-14.87-.11-41.42-15.37-52.75-22.28,0-.09.06-.17.1-.26a14.4,14.4,0,0,1-7.14,7.54,1.42,1.42,0,0,1-.57.12,1.32,1.32,0,0,1-.75-.22l-11.21-7.26a1.73,1.73,0,0,0-.95-.28,1.78,1.78,0,0,0-.78.18l-9.46,4.74a3,3,0,0,1-1.3.3,2.92,2.92,0,0,1-1.63-.5c-3.41-2.37-12.75-9-24.77-19.2-.45,1.39-.91,2.78-1.4,4.21-1.51,3.86.45,4.22.45,4.22s3,1.52-.58,4.79c-2,1.82-9,9.33-11.14,11.56a1.89,1.89,0,0,1-1.38.6h-.09l-2.93-.17c-4.86-.31-4.22-1.71-4.19-5.45a147.17,147.17,0,0,1,1.72-18.3c-7.91-1.36-19.73-6.74-22.58-8.07a1.2,1.2,0,0,1-.69-1l-.75-9.92a1.19,1.19,0,0,0-1.22-1.12,1.17,1.17,0,0,0-1.13.81l-4.23,12.07a.89.89,0,0,1-.15.29c-1.1,1.57-11.62,15.49-39.59,19.43a1.26,1.26,0,0,0-.49.18c-2.37,1.53-3.93,6.14-5.19,8.4a3.42,3.42,0,0,1-4.81,1.26,340.8,340.8,0,0,1-31.37-22.3c-10.34,11.3-26,25.63-43.43,32.12a.32.32,0,0,1-.14,0c-2.65,0-12.17-15.58-14.88-21.35-1.23-2.62-.35-2.74.42-3.89l6.65-9.84A1.29,1.29,0,0,0,74.6,286c-4.6-4.65-29.22-29.12-32.73-33.7-5.13-6.68.41-13,.41-13s21.55-27.09,25.91-32.9c1.79-2.39,3.46-3.09,4.82-3.09a4.67,4.67,0,0,1,3.21,1.45s11.37,12.72,20.13,18.09c3,1.86,5.46,2.64,7.35,2.64,6.58,0,6.61-9.5,1.94-16.77S90,195.2,84.31,193.35a3.15,3.15,0,0,0-3.81,1.74,2.87,2.87,0,0,1-2.64,1.76h-.2c-6.71-.45-27.68-2.13-28.15-5.58-.65-4.84,8.13-19.16,21.87-48.58C83.49,116.76,82.15,97.3,81.66,93a2,2,0,0,1,.51-1.56l22-23.9c1.79-1.89,2.63-2.49,3.44-2.49s1.54.56,3.1,1.08l7.71,4.16c1.8,1,2.63,1.53,3.38,1.53s1.55-.64,3.31-2l5.53-4.15a5.91,5.91,0,0,1,2.62-1.06c.89,0,1.33.76,2.55,1.81,7.28,6.23,25.42,28.08,22.8,31.34-3.2,4-14.68,37.62-14.68,37.62l5.42,8.35c.87,1,.19,3.15.07,3.69l-6.76,35.87a.9.9,0,0,1-.87.7,1,1,0,0,1-.32-.06,67.15,67.15,0,0,0-25.81-5.32,63.23,63.23,0,0,0-19.09,3,1.59,1.59,0,0,1-.51.08c-4.83,0-1.87-24.51-.63-33.43a.34.34,0,0,0-.34-.39.31.31,0,0,0-.31.23c-2.4,6.5-7.84,21.22-8.08,21.8s-4,7.79,1.36,9.93c4.58,1.84,12,2.84,14,3.08a2.88,2.88,0,0,1,1,.28l37,18.51a4.31,4.31,0,0,0,2,.46,4.38,4.38,0,0,0,1-.12l3.92-1.95a1.47,1.47,0,0,1,.36,0,1.8,1.8,0,0,1,1,.33c.76.53,2.17,1.57,3.89,2.9,5.43-17.06,9.14-30.85,9.83-33.43a1.19,1.19,0,0,0-.09-.83l-2.17-4.48a1.21,1.21,0,0,1,.29-1.44l20.23-17.88a1.21,1.21,0,0,1,.8-.3,1.23,1.23,0,0,1,.75.25l4,3.16a1.16,1.16,0,0,0,.75.26,1.29,1.29,0,0,0,.54-.12l3.48-1.74a1.13,1.13,0,0,1,.54-.13,1.23,1.23,0,0,1,.94.45l25,30.77a1.13,1.13,0,0,1,.24.49l1.74,7.65a1.21,1.21,0,0,1-.26,1l-15.58,18.34a1.25,1.25,0,0,1-.93.42l-.26,0-4.44-1a1.24,1.24,0,0,0-.27,0,1.19,1.19,0,0,0-1,.58C194,209,184.13,225.51,182.58,232.2c-1.24,5.4-2.85,14.21,1.78,14.21,1.83,0,4.65-1.39,8.85-4.92,9.89-8.31,11.93-12.17,12.2-13.82a1.24,1.24,0,0,1,1.24-1h.1c3.34.25,11.71,1.58,20.54,8.47,1,2.13-.75,6.28-.59,8.24.32,4,1.7,6,3.2,6,1.87,0,3.93-3.09,4.36-9.12,0,0,0-3,0-3.41a.24.24,0,0,0,0-.08l-5.81-22.87a1.83,1.83,0,0,0-1.77-1.37h-2.84a1.19,1.19,0,0,1-1-.57c-.87-1.4-2.67-5.93-2.08-18.85.18-2.85,9.54-9.32,12.6-11.35a1.14,1.14,0,0,1,.66-.2,1.16,1.16,0,0,1,1,.5,110.13,110.13,0,0,1,7.14,11.78L241.3,178a5.79,5.79,0,0,0-1.11-3.13l-6.58-9a2.42,2.42,0,0,1-.3-2l2.21-7.56a5.72,5.72,0,0,0,.22-1.53V142.89a2.57,2.57,0,0,1,1.52-2.34l16.84-7.45a2.16,2.16,0,0,1,.89-.19,2.24,2.24,0,0,1,1.72.81l1.61,1.95a2.24,2.24,0,0,0,2.28.74l5-1.3a2.1,2.1,0,0,1,.56-.08,2.17,2.17,0,0,1,1.53.63l6.49,6.29a148.07,148.07,0,0,0-4.93-14.36L255.15,114.2a3.56,3.56,0,0,1-1.06-2.12l-3.31-27.49a2,2,0,0,1,.93-1.91c4.14-2.53,19.13-11.69,24.86-15.8,3.2-2.3,4.79-3.08,5.89-3.08M252,220.55l14.35-6.72a.79.79,0,0,1,.32-.08.65.65,0,0,1,.64.7l.11,4.87a1.3,1.3,0,0,1-.64,1.46L253,226.57c.21,1.62.38,3.26.48,4.92a119.81,119.81,0,0,1,11.81-4.9,1.51,1.51,0,0,1,.51-.08,1.71,1.71,0,0,1,1.69,1.62,130.75,130.75,0,0,1-1.26,25.26c20.54-32.51,17.09-72.24,11.3-98.25-5.87,3.58-9.91,15.85-10,45.5,0,5.91.29,5.52-2.87,7.31l-14.49,5.51c.68,2.3,1.29,4.66,1.8,7.09m61.55,69.66c2.55-7.49,5.68-15.87,8.13-18.75,9.92-2.47,11-.24,14.78-18s-11.78-21.34-11.78-21.34c.7-7.3-3.25-14-8-14-1.75,0-3.61.92-5.38,3.09a15.33,15.33,0,0,0-2.88,6c-5.7,22.22-3.71,50.43,5.11,63.12m50.56-8.09s-.64-.19-1.67-.54a12,12,0,0,0,1.67.54m-50.23,8.58,0,0,0,0m1,1.22,0,0,0,0,0,0,0,0m1.17,1.25-.37-.38.37.38m1.8,3.33c0,.11,0,.22,0,.33s0,.38,0,.57a20,20,0,0,1-.37,3.06,17.06,17.06,0,0,0,.38-3.62h0c0-.11,0-.22,0-.33a6.12,6.12,0,0,0,0-1.14c0,.4,0,.77,0,1.14m-.47,4.34c0,.1,0,.2-.07.31s0,.13-.05.2,0-.14.05-.2a2.82,2.82,0,0,0,.07-.31m-.59,2.07,0,0,0,0v0M282.46,47.8h0c-6.22,0-11.12,3.14-15.22,6.08S252.19,63.65,243.39,69A18,18,0,0,0,234.9,86.5l3.31,27.5a19.5,19.5,0,0,0,2.53,7.51l-10,4.41a18.57,18.57,0,0,0-11,17v10.37l-.53,1.79-14.69-18.11a17.12,17.12,0,0,0-13.36-6.37,16.49,16.49,0,0,0-2.33.16,17.24,17.24,0,0,0-19.15,2.47l-5.35,4.74a18,18,0,0,0-1.86-3.33l-.89-1.37c4-11.46,8.45-23.11,10.12-26.31,3.17-4.46,5.3-11.75-.56-22.32a93.45,93.45,0,0,0-7.57-11.15c-4.81-6.26-12-14.6-17.35-19.16l-.2-.19a18,18,0,0,0-12.79-5.49,20.88,20.88,0,0,0-10.65,3.22l-.82.48-.76.57-.52.39-2.19-1.19-1.24-.67L115.77,51l-.27-.12a19.14,19.14,0,0,0-7.92-1.79c-8,0-12.75,5-15.06,7.49l-.08.08-.08.09-22,23.9a18,18,0,0,0-4.63,14.21c.21,1.81,1.73,18.34-8.87,41-4.75,10.15-8.92,18.55-12.28,25.29-8.51,17.12-12,24.2-11,32.21.54,4,3,11,12.91,14.77-5.55,7.05-12.3,15.55-16.62,21-6.64,7.85-9.66,21.34-.77,32.91,2.41,3.13,9.25,10.29,25.51,26.63-2.7,3.64-5.77,10.41-1.49,19.49a135.38,135.38,0,0,0,8.59,14.86c5.47,8.27,11.17,15.69,20.77,15.69a16.81,16.81,0,0,0,4.18-.53l.79-.21.76-.28c15.08-5.62,28.66-15.88,39.28-25.82,8.22,6,16.67,11.6,21.5,14.6a19.43,19.43,0,0,0,27.23-7.08c.32-.59.61-1.16.89-1.73,19.12-4,31-12.16,37.46-18.17,1.89.81,4,1.68,6.27,2.52-.2,2.48-.3,4.7-.31,6.71,0,.3,0,.58,0,.84a19.78,19.78,0,0,0,3.78,13.33c5.17,6.72,12.88,7.21,15.41,7.37,1.57.1,2.58.15,3.21.18l.83,0a18,18,0,0,0,13-5.65c3.89-4.14,6.92-7.31,8.71-9.13,3.64,2.72,6.39,4.66,8,5.76a18.73,18.73,0,0,0,10.72,3.34,19,19,0,0,0,8.45-2l2.18-1.09,4.37,2.83a17.41,17.41,0,0,0,16.7,1.21,29.2,29.2,0,0,0,3.1-1.67c21.31,11.95,38.06,18,49.89,18.13l5.13,0,4.2-2.95c5.8-4.08,10.5-11.71,15.73-25.52a200.09,200.09,0,0,0,7-22.19,18.32,18.32,0,0,0-3.47-15.39,17.42,17.42,0,0,0-13.12-6.62c2.47-6.15,5.4-12.44,9.47-17.59.48-.61.89-1.19,1.24-1.71a17.49,17.49,0,0,0,11.69-14.52c.67-5.8-.46-15.64-3.36-29.26a17.2,17.2,0,0,0-6.8-10.37,17.35,17.35,0,0,0-6.07-6.64c-14.08-8.95-25.4-13.77-33.67-14.33.87-1.36,1.67-2.65,2.39-3.85l1.47-.09A18.42,18.42,0,0,0,376.61,160c2.18-5.21,11.52-24.89,16.59-32.1a18,18,0,0,0-5-25.52C378.35,96.07,363.24,90,353.8,88.64l-2.29-.33-2.28.32a22.25,22.25,0,0,0-14,7.87,17.84,17.84,0,0,0-12.51,14.85c-1.47,11.75-5.09,25.11-10,34.77-.16-.5-.32-1-.45-1.41l2.9-10.61a18.17,18.17,0,0,0,.6-6.14c-.19-2.68-2.19-30.13-2.31-31.54-.42-5.13-2.37-11.83-9-15.8l.19-7.63c.38-6.6-2.09-15.74-10.35-20.9l-.11-.09a18.93,18.93,0,0,0-11.73-4.2Z"/></g><g id="outline_black" data-name="outline black"><path class="cls-6" d="M282.46,63.8c1.2,0,1.82.92,3.3,1.82,3.32,2,2.9,6.63,2.9,6.63l-.53,21c8.37.43,9.05.43,9.39,4.5.1,1.18,2,27.8,2.29,31.35a2.22,2.22,0,0,1-.07.77L295.86,144a3,3,0,0,0,0,1.51,82.74,82.74,0,0,0,12,26.16c.39.56.65,1.17,1.29,1.17a2.6,2.6,0,0,0,1.35-.57c20.85-11.48,27.21-51.24,28.18-59a1.85,1.85,0,0,1,1.48-1.58L344,111a2.61,2.61,0,0,0,1.86-1.49c.76-1.69,2.5-4.58,5.62-5,6.46,1,19.3,5.74,28.08,11.38a2,2,0,0,1,.56,2.86c-6.18,8.8-16,29.74-18.26,35.14a2.32,2.32,0,0,1-2,1.42l-10.16.59s-11.44,22-24.44,32.76c-1.22,1-4.83,5,.92,6.39a60.1,60.1,0,0,0,23.06,1.61,1.62,1.62,0,0,0,.75-.32,22,22,0,0,0,4.39-4.57,1.28,1.28,0,0,1,1.08-.6h0c7.71.18,23.18,9.76,26.52,11.88a1.33,1.33,0,0,1,.61,1.18l-.14,3.41a1.07,1.07,0,0,0,.86,1.08c.48.08,1,.1,1.28.12l2.13.14a1.15,1.15,0,0,1,1.07.91c.79,3.71,3.79,18.33,3.12,24.08a1.47,1.47,0,0,1-1.13,1.27c-5.84,1.28-6.73,4.69-8.46,6.89-10.42,13.18-14.13,29.91-19,39.29l1.76.74c4.21,1.18,14.65,3.47,19.65,3.47h.09a1.9,1.9,0,0,1,1.58,2.42c-1.68,7.29-9.81,33.64-16.33,38.22-14.87-.11-41.42-15.37-52.75-22.28,0-.09.06-.17.1-.26a14.4,14.4,0,0,1-7.14,7.54,1.42,1.42,0,0,1-.57.12,1.32,1.32,0,0,1-.75-.22l-11.21-7.26a1.73,1.73,0,0,0-.95-.28,1.78,1.78,0,0,0-.78.18l-9.46,4.74a3,3,0,0,1-1.3.3,2.92,2.92,0,0,1-1.63-.5c-3.41-2.37-12.75-9-24.77-19.2-.45,1.39-.91,2.78-1.4,4.21-1.51,3.86.45,4.22.45,4.22s3,1.52-.58,4.79c-2,1.82-9,9.33-11.14,11.56a1.89,1.89,0,0,1-1.38.6h-.09l-2.93-.17c-4.86-.31-4.22-1.71-4.19-5.45a147.17,147.17,0,0,1,1.72-18.3c-7.91-1.36-19.73-6.74-22.58-8.07a1.2,1.2,0,0,1-.69-1l-.75-9.92a1.19,1.19,0,0,0-1.22-1.12,1.17,1.17,0,0,0-1.13.81l-4.23,12.07a.89.89,0,0,1-.15.29c-1.1,1.57-11.62,15.49-39.59,19.43a1.26,1.26,0,0,0-.49.18c-2.37,1.53-3.93,6.14-5.19,8.4a3.42,3.42,0,0,1-4.81,1.26,340.8,340.8,0,0,1-31.37-22.3c-10.34,11.3-26,25.63-43.43,32.12a.32.32,0,0,1-.14,0c-2.65,0-12.17-15.58-14.88-21.35-1.23-2.62-.35-2.74.42-3.89l6.65-9.84A1.29,1.29,0,0,0,74.6,286c-4.6-4.65-29.22-29.12-32.73-33.7-5.13-6.68.41-13,.41-13s21.55-27.09,25.91-32.9c1.79-2.39,3.46-3.09,4.82-3.09a4.67,4.67,0,0,1,3.21,1.45s11.37,12.72,20.13,18.09c3,1.86,5.46,2.64,7.35,2.64,6.58,0,6.61-9.5,1.94-16.77S90,195.2,84.31,193.35a3.15,3.15,0,0,0-3.81,1.74h0a2.87,2.87,0,0,1-2.64,1.76h-.2c-6.71-.45-27.68-2.13-28.15-5.58-.65-4.84,8.13-19.16,21.87-48.58C83.49,116.76,82.15,97.3,81.66,93a2,2,0,0,1,.51-1.56l22-23.9c1.79-1.89,2.63-2.49,3.44-2.49s1.54.56,3.1,1.08l7.71,4.16c1.8,1,2.63,1.53,3.38,1.53s1.55-.64,3.31-2l5.53-4.15a5.91,5.91,0,0,1,2.62-1.06c.89,0,1.33.76,2.55,1.81,7.28,6.23,25.42,28.08,22.8,31.34-3.2,4-14.68,37.62-14.68,37.62l5.42,8.35c.87,1,.19,3.15.07,3.69l-6.76,35.87a.9.9,0,0,1-.87.7,1,1,0,0,1-.32-.06,67.15,67.15,0,0,0-25.81-5.32,63.23,63.23,0,0,0-19.09,3,1.59,1.59,0,0,1-.51.08c-4.83,0-1.87-24.51-.63-33.43a.34.34,0,0,0-.34-.39.31.31,0,0,0-.31.23c-2.4,6.5-7.84,21.22-8.08,21.8s-4,7.79,1.36,9.93c4.58,1.84,12,2.84,14,3.08a2.88,2.88,0,0,1,1,.28l37,18.51a4.31,4.31,0,0,0,2,.46,4.38,4.38,0,0,0,1-.12l3.92-1.95a1.47,1.47,0,0,1,.36,0,1.8,1.8,0,0,1,1,.33c.76.53,2.17,1.57,3.89,2.9,5.43-17.06,9.14-30.85,9.83-33.43a1.19,1.19,0,0,0-.09-.83l-2.17-4.48a1.21,1.21,0,0,1,.29-1.44l20.23-17.88a1.21,1.21,0,0,1,.8-.3,1.23,1.23,0,0,1,.75.25l4,3.16a1.16,1.16,0,0,0,.75.26,1.29,1.29,0,0,0,.54-.12l3.48-1.74a1.13,1.13,0,0,1,.54-.13,1.23,1.23,0,0,1,.94.45l25,30.77a1.13,1.13,0,0,1,.24.49l1.74,7.65a1.21,1.21,0,0,1-.26,1l-15.58,18.34a1.25,1.25,0,0,1-.93.42l-.26,0-4.44-1a1.24,1.24,0,0,0-.27,0,1.19,1.19,0,0,0-1,.58C194,209,184.13,225.51,182.58,232.2c-1.24,5.4-2.85,14.21,1.78,14.21,1.83,0,4.65-1.39,8.85-4.92,9.89-8.31,11.93-12.17,12.2-13.82a1.24,1.24,0,0,1,1.24-1h.1c3.34.25,11.71,1.58,20.54,8.47,1,2.13-.75,6.28-.59,8.24.32,4,1.7,6,3.2,6,1.87,0,3.93-3.09,4.36-9.12,0,0,0-3,0-3.41a.24.24,0,0,0,0-.08l-5.81-22.87a1.83,1.83,0,0,0-1.77-1.37h-2.84a1.19,1.19,0,0,1-1-.57c-.87-1.4-2.67-5.93-2.08-18.85.18-2.85,9.54-9.32,12.6-11.35a1.14,1.14,0,0,1,.66-.2,1.16,1.16,0,0,1,1,.5,110.13,110.13,0,0,1,7.14,11.78L241.3,178a5.79,5.79,0,0,0-1.11-3.13l-6.58-9a2.42,2.42,0,0,1-.3-2l2.21-7.56a5.72,5.72,0,0,0,.22-1.53V142.89a2.57,2.57,0,0,1,1.52-2.34l16.84-7.45a2.16,2.16,0,0,1,.89-.19,2.24,2.24,0,0,1,1.72.81l1.61,1.95a2.24,2.24,0,0,0,2.28.74l5-1.3a2.1,2.1,0,0,1,.56-.08,2.17,2.17,0,0,1,1.53.63l6.49,6.29a148.07,148.07,0,0,0-4.93-14.36L255.15,114.2a3.56,3.56,0,0,1-1.06-2.12l-3.31-27.49a2,2,0,0,1,.93-1.91c4.14-2.53,19.13-11.69,24.86-15.8,3.2-2.3,4.79-3.08,5.89-3.08M252,220.55l14.35-6.72a.79.79,0,0,1,.32-.08.65.65,0,0,1,.64.7l.11,4.87a1.3,1.3,0,0,1-.64,1.46L253,226.57c.21,1.62.38,3.26.48,4.92a119.81,119.81,0,0,1,11.81-4.9,1.51,1.51,0,0,1,.51-.08,1.71,1.71,0,0,1,1.69,1.62,130.75,130.75,0,0,1-1.26,25.26c20.54-32.51,17.09-72.24,11.3-98.25-5.87,3.58-9.91,15.85-10,45.5,0,5.91.29,5.52-2.87,7.31l-14.49,5.51c.68,2.3,1.29,4.66,1.8,7.09m61.55,69.66c2.55-7.49,5.68-15.87,8.13-18.75,9.92-2.47,11-.24,14.78-18s-11.78-21.34-11.78-21.34c.7-7.3-3.25-14-8-14-1.75,0-3.61.92-5.38,3.09a15.33,15.33,0,0,0-2.88,6c-5.7,22.22-3.71,50.43,5.11,63.12m50.56-8.09s-.64-.19-1.67-.54a12,12,0,0,0,1.67.54m-50.23,8.58,0,0,0,0m1,1.22,0,0,0,0,0,0,0,0m1.17,1.25-.37-.38.37.38m1.8,3.33c0,.11,0,.22,0,.33s0,.38,0,.57a20,20,0,0,1-.37,3.06,17.06,17.06,0,0,0,.38-3.62h0c0-.11,0-.22,0-.33a6.12,6.12,0,0,0,0-1.14c0,.4,0,.77,0,1.14m-.47,4.34c0,.1,0,.2-.07.31s0,.13-.05.2,0-.14.05-.2a2.82,2.82,0,0,0,.07-.31m-.59,2.08,0,0,0,0v0M282.46,59.8h0c-2.42,0-4.76,1.34-8.22,3.83-5.58,4-20.25,13-24.61,15.63a6,6,0,0,0-2.82,5.8l3.31,27.5a7.51,7.51,0,0,0,2.28,4.53l13.43,12.8c.12.3.27.68.44,1.14h-.15a6,6,0,0,0-1.58.21l-3.86,1-.88-1.07a6.22,6.22,0,0,0-7.32-1.74l-16.83,7.45a6.56,6.56,0,0,0-3.91,6v11.88a1.34,1.34,0,0,1-.06.4l-2.21,7.57a6.38,6.38,0,0,0,.81,5.34l.05.08.06.07,6.57,9a1.75,1.75,0,0,1,.34,1l0,.59a5.19,5.19,0,0,0-6.24-.37,93.85,93.85,0,0,0-8.29,6.08l-1.61-7.09a5.24,5.24,0,0,0-1-2.12l-25-30.77a5.15,5.15,0,0,0-4-1.93,5.22,5.22,0,0,0-2.33.55l-1.9.95L184.3,142a5.23,5.23,0,0,0-6.67.19L157.4,160.08a5.22,5.22,0,0,0-1.24,6.18l1.72,3.54c-1,3.67-3.82,14-7.83,26.93a5.74,5.74,0,0,0-2.77-.71,5.61,5.61,0,0,0-1.29.15l-.45.11-.41.2-3.27,1.64-.06,0-30.61-15.3c1.48-.12,3-.17,4.44-.17a62.71,62.71,0,0,1,23.68,4.78l.68.27a4.89,4.89,0,0,0,6.54-3.48l0-.07V184l6.74-35.77,0-.06c.3-1.2,1.11-4.33-.74-6.79l-4.27-6.58c5.35-15.53,11.65-32.28,13.39-34.57,2.32-2.88,1.86-7.16-7.64-19.5-5.17-6.72-11.77-14-15.68-17.38-.25-.22-.47-.43-.7-.65a6.21,6.21,0,0,0-4.45-2.12,9.31,9.31,0,0,0-4.63,1.6l-.2.12-.19.14-5.53,4.15,0,0,0,0-.53.41-.52.42-.52-.29-.71-.4-7.75-4.18-.31-.17-.33-.11c-.46-.15-.83-.32-1.23-.49a7.59,7.59,0,0,0-3.13-.79c-2.59,0-4.4,1.69-6.34,3.74l0,0,0,0-22,23.91a5.94,5.94,0,0,0-1.53,4.71c.4,3.52,1.82,22.33-9.93,47.49-4.81,10.29-9,18.76-12.4,25.56-7.14,14.35-10.4,20.9-9.81,25.25s6,6,15.11,7.34c2.92.43,6,.78,8.8,1.05A12.34,12.34,0,0,0,65,204.05c-4.17,5.55-24.57,31.22-25.78,32.74-2.67,3.09-6.11,10.69-.52,18,2.73,3.54,15.73,16.69,29.38,30.37l2.12,2.13-5.4,8-.2.24c-1.86,2.25-2,4.44-.53,7.59a125.37,125.37,0,0,0,7.74,13.34c5.73,8.67,8.2,10.31,10.76,10.31a4.89,4.89,0,0,0,1.15-.14l.2-.06.19-.07c16.89-6.29,32-19.49,42.41-30.41,10.23,8.08,23.54,16.92,28.88,20.24a7.42,7.42,0,0,0,10.42-2.72c.4-.71.78-1.53,1.18-2.4a24.35,24.35,0,0,1,2.35-4.27c29-4.33,40.31-19.27,41.51-21a5.36,5.36,0,0,0,.66-1.28l.23-.67a5.21,5.21,0,0,0,2.32,2.13,133.73,133.73,0,0,0,19.81,7.55,129,129,0,0,0-1.26,15.17c0,.39,0,.74,0,1.08-.11,3.81.41,7.91,8,8.39,1.46.1,2.4.15,3,.17h.28a5.91,5.91,0,0,0,4.29-1.86c4.31-4.59,9.44-10,10.94-11.35,2.86-2.63,3.2-5.09,3-6.69a5,5,0,0,0-.23-1c9,7.26,15.73,12.07,18.57,14a6.86,6.86,0,0,0,3.9,1.21,7,7,0,0,0,3.09-.72l8.31-4.16,10.12,6.56a5.45,5.45,0,0,0,2.93.86,5.26,5.26,0,0,0,2.24-.49,18.41,18.41,0,0,0,6.73-5.42c14.4,8.54,37.31,20.69,51.36,20.79h1.29l1-.73c1.31-.92,5.27-3.7,11.42-20a188.56,188.56,0,0,0,6.51-20.64,6.19,6.19,0,0,0-1.18-5.22,5.46,5.46,0,0,0-4.3-2.1h-.09c-3.63,0-11.05-1.47-15.88-2.63,1-2.31,1.94-4.83,2.93-7.43,3.31-8.72,7.07-18.61,13.67-27a20.1,20.1,0,0,0,1.24-1.8c1.16-1.8,1.92-3,4.95-3.66a5.48,5.48,0,0,0,4.24-4.72c.71-6.11-2-19.78-3.18-25.37a5.19,5.19,0,0,0-4.72-4.08l-.41,0,0-.57a5.36,5.36,0,0,0-2.46-4.71c-5.82-3.7-20.23-12.31-28.58-12.51h-.12a5.27,5.27,0,0,0-4.44,2.43,16.54,16.54,0,0,1-3,3.18,55.68,55.68,0,0,1-6.27.34,53,53,0,0,1-13.59-1.67c11.12-9.33,20.81-25.91,24-31.68l7.93-.47a6.28,6.28,0,0,0,5.47-3.87c2.15-5.16,11.92-26,17.84-34.38a6,6,0,0,0-1.67-8.52c-9.49-6.1-22.79-11-29.66-12l-.57-.09-.57.08c-3.53.5-6.49,2.87-8.41,6.7l-3.16.63a5.83,5.83,0,0,0-4.67,5c-2,16-9.42,45.09-24.61,55a77.89,77.89,0,0,1-10.25-23.07h0l3.8-13.86a6.53,6.53,0,0,0,.2-2.11c-.27-3.88-2.2-30.22-2.29-31.4-.53-6.3-3.5-7.47-9.28-7.93l.43-17c.2-2.67-.6-7.69-4.82-10.26a9.21,9.21,0,0,1-.9-.64,7.12,7.12,0,0,0-4.48-1.76ZM268.63,210.2c2.76-2,2.92-3.95,2.91-8.13v-1.41c.06-19.18,1.84-29.76,3.89-35.59,3.51,20.13,4.49,44.94-3.77,68,0-2.42-.11-4.16-.16-5.19a5.74,5.74,0,0,0-2.07-4.11,5.06,5.06,0,0,0,2-4.54v0l-.11-4.81a4.66,4.66,0,0,0-1.32-3.27,4.61,4.61,0,0,0-1.34-1ZM89.25,176a3.82,3.82,0,0,1,.17-2c0,.78.07,1.51.12,2.17h0a1.65,1.65,0,0,1-.27-.14Zm113,33.79a5.2,5.2,0,0,0,4-1.83l10.39-12.22c-.19,8.78.75,15.09,2.77,18.35a5.15,5.15,0,0,0,4.42,2.46H225l3.72,14.63a42.85,42.85,0,0,0-21.63-8.49h-.4a5.23,5.23,0,0,0-5.19,4.37c-.07.25-1.13,3.28-10.82,11.43a24.54,24.54,0,0,1-5.35,3.68c-.1-1.23,0-3.82,1.19-9,1-4.46,7-15.35,12.16-24l2.48.56a5.45,5.45,0,0,0,1.14.12Zm-124.4-8.89a6.88,6.88,0,0,0,6-3.44c5.59,2.07,14.85,7.9,18.46,13.53,2.77,4.29,3.08,8.7,2.25,10.22-.13.24-.21.38-.82.38s-2.35-.26-5.26-2c-8.15-5-19.13-17.23-19.24-17.35a8.33,8.33,0,0,0-1.5-1.3ZM313,280c-4.64-13.44-5.14-34.45-.67-51.92a11.47,11.47,0,0,1,2.11-4.41,3.71,3.71,0,0,1,2.28-1.62,2.56,2.56,0,0,1,1.65,1,11.79,11.79,0,0,1,2.35,8.64l-.33,3.5,3.43.78a14.21,14.21,0,0,1,5.68,3.24c3.25,3.09,4.28,7.59,3.07,13.38-1.31,6.19-2.43,10.67-3.69,12.41-.62.86-1.38,1.09-4.64,1.79-1,.21-2.18.46-3.5.79l-1.25.31-.83,1C317,270.8,315.19,274.28,313,280Z"/></g></svg>